<svg id="visual" viewBox="0 0 1440 400" width="1440" height="400" xmlns="http://www.w3.org/2000/svg" xmlns:xlink="http://www.w3.org/1999/xlink" version="1.1"><path d="M0 223L24 235.8C48 248.7 96 274.3 144 284.7C192 295 240 290 288 280.7C336 271.3 384 257.7 432 250.5C480 243.3 528 242.7 576 243C624 243.3 672 244.7 720 253C768 261.3 816 276.7 864 279.7C912 282.7 960 273.3 1008 271C1056 268.7 1104 273.3 1152 277C1200 280.7 1248 283.3 1296 274.3C1344 265.3 1392 244.7 1416 234.3L1440 224L1440 401L1416 401C1392 401 1344 401 1296 401C1248 401 1200 401 1152 401C1104 401 1056 401 1008 401C960 401 912 401 864 401C816 401 768 401 720 401C672 401 624 401 576 401C528 401 480 401 432 401C384 401 336 401 288 401C240 401 192 401 144 401C96 401 48 401 24 401L0 401Z" fill="#fa7268"></path><path d="M0 280L24 280.5C48 281 96 282 144 280.3C192 278.7 240 274.3 288 270.5C336 266.7 384 263.3 432 269.7C480 276 528 292 576 291.3C624 290.7 672 273.3 720 264.2C768 255 816 254 864 261.7C912 269.3 960 285.7 1008 286.8C1056 288 1104 274 1152 269.5C1200 265 1248 270 1296 268.8C1344 267.7 1392 260.3 1416 256.7L1440 253L1440 401L1416 401C1392 401 1344 401 1296 401C1248 401 1200 401 1152 401C1104 401 1056 401 1008 401C960 401 912 401 864 401C816 401 768 401 720 401C672 401 624 401 576 401C528 401 480 401 432 401C384 401 336 401 288 401C240 401 192 401 144 401C96 401 48 401 24 401L0 401Z" fill="#ef5f67"></path><path d="M0 284L24 290.2C48 296.3 96 308.7 144 307.7C192 306.7 240 292.3 288 289.8C336 287.3 384 296.7 432 303.5C480 310.3 528 314.7 576 314.3C624 314 672 309 720 303.5C768 298 816 292 864 291.2C912 290.3 960 294.7 1008 296C1056 297.3 1104 295.7 1152 292.8C1200 290 1248 286 1296 288.2C1344 290.3 1392 298.7 1416 302.8L1440 307L1440 401L1416 401C1392 401 1344 401 1296 401C1248 401 1200 401 1152 401C1104 401 1056 401 1008 401C960 401 912 401 864 401C816 401 768 401 720 401C672 401 624 401 576 401C528 401 480 401 432 401C384 401 336 401 288 401C240 401 192 401 144 401C96 401 48 401 24 401L0 401Z" fill="#e34c67"></path><path d="M0 338L24 334.8C48 331.7 96 325.3 144 322.5C192 319.7 240 320.3 288 319.5C336 318.7 384 316.3 432 314.3C480 312.3 528 310.7 576 312.8C624 315 672 321 720 326.8C768 332.7 816 338.3 864 337.2C912 336 960 328 1008 325.2C1056 322.3 1104 324.7 1152 327.7C1200 330.7 1248 334.3 1296 331.8C1344 329.3 1392 320.7 1416 316.3L1440 312L1440 401L1416 401C1392 401 1344 401 1296 401C1248 401 1200 401 1152 401C1104 401 1056 401 1008 401C960 401 912 401 864 401C816 401 768 401 720 401C672 401 624 401 576 401C528 401 480 401 432 401C384 401 336 401 288 401C240 401 192 401 144 401C96 401 48 401 24 401L0 401Z" fill="#d53867"></path><path d="M0 364L24 362.7C48 361.3 96 358.7 144 355.7C192 352.7 240 349.3 288 350.2C336 351 384 356 432 355.8C480 355.7 528 350.3 576 348.5C624 346.7 672 348.3 720 348.7C768 349 816 348 864 350.2C912 352.3 960 357.7 1008 360.3C1056 363 1104 363 1152 360C1200 357 1248 351 1296 348.2C1344 345.3 1392 345.7 1416 345.8L1440 346L1440 401L1416 401C1392 401 1344 401 1296 401C1248 401 1200 401 1152 401C1104 401 1056 401 1008 401C960 401 912 401 864 401C816 401 768 401 720 401C672 401 624 401 576 401C528 401 480 401 432 401C384 401 336 401 288 401C240 401 192 401 144 401C96 401 48 401 24 401L0 401Z" fill="#c62368"></path></svg>